<?xml version="1.0" encoding="UTF-8" standalone="no"?>
<svg
   viewBox="0 0 640 640"
   version="1.1"
   id="svg1"
   sodipodi:docname="spotify-brands-solid-full.svg"
   inkscape:version="1.4 (86a8ad7, 2024-10-11)"
   xmlns:inkscape="http://www.inkscape.org/namespaces/inkscape"
   xmlns:sodipodi="http://sodipodi.sourceforge.net/DTD/sodipodi-0.dtd"
   xmlns="http://www.w3.org/2000/svg"
   xmlns:svg="http://www.w3.org/2000/svg">
  <defs
     id="defs1" />
  <sodipodi:namedview
     id="namedview1"
     pagecolor="#505050"
     bordercolor="#ffffff"
     borderopacity="1"
     inkscape:showpageshadow="0"
     inkscape:pageopacity="0"
     inkscape:pagecheckerboard="1"
     inkscape:deskcolor="#505050"
     inkscape:zoom="1.190625"
     inkscape:cx="320"
     inkscape:cy="320"
     inkscape:window-width="1920"
     inkscape:window-height="991"
     inkscape:window-x="-9"
     inkscape:window-y="245"
     inkscape:window-maximized="1"
     inkscape:current-layer="svg1" />
  <!--!Font Awesome Free 7.1.0 by @fontawesome - https://fontawesome.com License - https://fontawesome.com/license/free Copyright 2025 Fonticons, Inc.-->
  <path
     d="M320 72C183 72 72 183 72 320C72 457 183 568 320 568C457 568 568 457 568 320C568 183 457 72 320 72zM420.7 436.9C416.5 436.9 413.9 435.6 410 433.3C347.6 395.7 275 394.1 203.3 408.8C199.4 409.8 194.3 411.4 191.4 411.4C181.7 411.4 175.6 403.7 175.6 395.6C175.6 385.3 181.7 380.4 189.2 378.8C271.1 360.7 354.8 362.3 426.2 405C432.3 408.9 435.9 412.4 435.9 421.5C435.9 430.6 428.8 436.9 420.7 436.9zM447.6 371.3C442.4 371.3 438.9 369 435.3 367.1C372.8 330.1 279.6 315.2 196.7 337.7C191.9 339 189.3 340.3 184.8 340.3C174.1 340.3 165.4 331.6 165.4 320.9C165.4 310.2 170.6 303.1 180.9 300.2C208.7 292.4 237.1 286.6 278.7 286.6C343.6 286.6 406.3 302.7 455.7 332.1C463.8 336.9 467 343.1 467 351.8C466.9 362.6 458.5 371.3 447.6 371.3zM478.6 295.1C473.4 295.1 470.2 293.8 465.7 291.2C394.5 248.7 267.2 238.5 184.8 261.5C181.2 262.5 176.7 264.1 171.9 264.1C158.7 264.1 148.6 253.8 148.6 240.5C148.6 226.9 157 219.2 166 216.6C201.2 206.3 240.6 201.4 283.5 201.4C356.5 201.4 433 216.6 488.9 249.2C496.7 253.7 501.8 259.9 501.8 271.8C501.8 285.4 490.8 295.1 478.6 295.1z"
     id="path1"
     style="fill:#1ed760;fill-opacity:1" />
</svg>
